<svg xmlns="http://www.w3.org/2000/svg" version="1.1" xmlns:xlink="http://www.w3.org/1999/xlink" xmlns:svgjs="http://svgjs.dev/svgjs" width="1500" height="818" viewBox="0 0 1500 818"><g transform="matrix(1,0,0,1,-0.9084522071641459,0.8644705700261852)"><svg viewBox="0 0 396 216" data-background-color="#d2d6dc" preserveAspectRatio="xMidYMid meet" height="818" width="1500" xmlns="http://www.w3.org/2000/svg" xmlns:xlink="http://www.w3.org/1999/xlink"><g id="tight-bounds" transform="matrix(1,0,0,1,0.24008861730862918,-0.22822380720427304)"><svg viewBox="0 0 395.52 216.4564947645706" height="216.4564947645706" width="395.52"><g><svg viewBox="0 0 395.52 216.4564947645706" height="216.4564947645706" width="395.52"><g><svg viewBox="0 0 395.52 216.4564947645706" height="216.4564947645706" width="395.52"><g id="textblocktransform"><svg viewBox="0 0 395.52 216.4564947645706" height="216.4564947645706" width="395.52" id="textblock"><g><svg viewBox="0 0 395.52 165.093664311486" height="165.093664311486" width="395.52"><path d="M394.594 35.409C392.735 18.273 387.435 13.509 387.435 13.509 371.165-4.142 350.86-0.338 332.619 2.199 300.414 2.301 268.339 6.071 236.208 8.094 168.767 8.402 100.749 3.33 33.643 15.839 27.339 19.678-6.54 16.593 1.121 37.603 3.129 46.343 10.456 56.042 10.232 64.062 11.236 65.467 12.631 62.245 13.226 64.268 15.309 69.717 18.711 67.147 21.501 70.368 17.614 78.971 20.403 86.134 23.062 93.64 18.377 95.593 12.371 94.668 9.675 101.146 9.396 105.841 7.89 104.95 6.235 104.744 5.026 104.607 2.59 105.121 2.999 106.595 4.394 111.633-1.594 114.547 2.162 119.482-0.422 124.829 3.948 129.455 3.353 135.248 3.278 136.413 3.687 137.407 4.338 137.681 7.22 139.155 3.018 142.034 3.464 145.153 33.029 166.471 65.104 151.733 95.394 161.535 103.259 154.681 97.346 163.969 100.489 162.529 102.943 160.85 104.728 167.807 107.499 163.866 107.927 162.735 107.276 160.062 108.8 160.576 109.6 160.85 110.307 160.781 110.418 159.205 110.586 156.84 109.117 158.314 108.726 157.08 112.947 150.842 111.906 165.682 115.866 165.065 115.68 163.249 114.528 160.644 116.889 160.987 119.232 158.382 119.306 156.223 121.389 162.084 121.463 163.352 121.835 164.243 122.43 164.86 128.938 158.485 135.409 167.122 142.233 164.243 146.417 161.09 150.433 165.957 154.672 164.757 156.16 163.797 157.666 162.084 159.098 164.963 176.632 165.58 195.319 163.009 211.943 165.065 256.364 161.227 303.836 166.642 350.674 161.57 361.719 159.616 373.192 156.84 383.958 154.612 383.958 154.612 392.679 148.511 392.679 121.093S394.538 97.101 394.817 75.269C395.096 53.437 396.398 52.546 394.538 35.409Z" opacity="1" fill="#636365" data-fill-palette-color="tertiary"></path><g transform="matrix(1,0,0,1,55.76832,26.068561146666667)"><svg width="283.98335999999995" viewBox="1.15 -31.5 93.64 37.25" height="112.95654201815267" data-palette-color="#d2d6dc"><path d="M6.95 0L6.15 0 1.15-29.55 1.95-29.55 6.6-2.25 12.4-29.55 13.2-29.55 18.9-1.75 23.7-29.55 24.5-29.55 19.4 0 18.45 0 12.8-27.65 6.95 0ZM34.35 0.35L34.35 0.35Q32.2 0.35 30.97-0.23 29.75-0.8 29.2-1.75 28.65-2.7 28.5-3.88 28.35-5.05 28.35-6.2L28.35-6.2 28.35-18.6Q28.35-19.75 28.5-20.9 28.65-22.05 29.22-23.03 29.8-24 31.05-24.58 32.3-25.15 34.55-25.15L34.55-25.15Q37.3-25.15 38.55-24.15 39.8-23.15 40.17-21.65 40.55-20.15 40.55-18.6L40.55-18.6 40.55-6.2Q40.55-4.65 40.17-3.15 39.8-1.65 38.5-0.65 37.2 0.35 34.35 0.35ZM34.35-0.45L34.35-0.45Q36.95-0.45 38.07-1.38 39.2-2.3 39.47-3.68 39.75-5.05 39.75-6.35L39.75-6.35 39.75-18.45Q39.75-19.8 39.47-21.15 39.2-22.5 38.12-23.43 37.05-24.35 34.55-24.35L34.55-24.35Q32.55-24.35 31.42-23.8 30.3-23.25 29.82-22.38 29.35-21.5 29.25-20.48 29.15-19.45 29.15-18.45L29.15-18.45 29.15-6.35Q29.15-5.35 29.25-4.33 29.35-3.3 29.8-2.43 30.25-1.55 31.32-1 32.4-0.45 34.35-0.45ZM47.7 0L46.9 0 46.9-24.75 47.6-24.75 47.7-22.25Q48.25-23.4 49.52-24.28 50.8-25.15 53.15-25.15L53.15-25.15Q54.2-25.15 55-25L55-25 55-24.2Q54.2-24.35 53.15-24.35L53.15-24.35Q50.4-24.35 49.05-22.9 47.7-21.45 47.7-19.45L47.7-19.45 47.7 0ZM63.84 0.35L63.84 0.35Q61.04 0.35 59.77-0.65 58.49-1.65 58.19-3.15 57.89-4.65 57.89-6.2L57.89-6.2 57.89-18.6Q57.89-19.75 58.04-20.9 58.19-22.05 58.74-23.03 59.29-24 60.52-24.58 61.74-25.15 63.84-25.15L63.84-25.15Q65.59-25.15 66.64-24.78 67.69-24.4 68.27-23.95 68.84-23.5 69.04-23.3L69.04-23.3 69.04-31.5 69.84-31.5 69.84 0 69.19 0 69.09-2.5Q68.74-1.45 67.34-0.55 65.94 0.35 63.84 0.35ZM63.84-0.45L63.84-0.45Q65.94-0.45 67.07-1.28 68.19-2.1 68.62-3.45 69.04-4.8 69.04-6.35L69.04-6.35 69.04-21.85Q68.89-22.2 68.47-22.78 68.04-23.35 66.97-23.85 65.89-24.35 63.84-24.35L63.84-24.35Q61.89-24.35 60.84-23.8 59.79-23.25 59.34-22.38 58.89-21.5 58.79-20.48 58.69-19.45 58.69-18.45L58.69-18.45 58.69-6.35Q58.69-5.35 58.79-4.33 58.89-3.3 59.34-2.43 59.79-1.55 60.84-1 61.89-0.45 63.84-0.45ZM77.44 0L76.64 0 76.64-31.5 77.44-31.5 77.44 0ZM83.49 5.75L83.49 5.75Q82.74 5.75 81.94 5.63 81.14 5.5 81.04 5.45L81.04 5.45 81.04 4.75Q81.14 4.8 81.89 4.93 82.64 5.05 83.49 5.05L83.49 5.05Q84.29 5.05 85.16 4.65 86.04 4.25 86.81 3.2 87.59 2.15 87.89 0.2L87.89 0.2 81.84-24.75 82.64-24.75 88.29-1.35 93.99-24.75 94.79-24.75 88.74 0.05Q88.09 2.65 86.91 4.2 85.74 5.75 83.49 5.75Z" opacity="1" transform="matrix(1,0,0,1,0,0)" fill="#d2d6dc" class="wordmark-text-0" data-fill-palette-color="quaternary" id="text-0"></path></svg></g></svg></g><g transform="matrix(1,0,0,1,75.54432,191.75999292496343)"><svg viewBox="0 0 244.43135999999998 24.6965018396072" height="24.6965018396072" width="244.43135999999998"><g transform="matrix(1,0,0,1,0,0)"><svg width="244.43135999999998" viewBox="2.1 -35.55 458.2 46.3" height="24.6965018396072" data-palette-color="#89939e"><path d="M15.2-3.2L15.2-3.2Q19.25-3.2 23.35-7.1L23.35-7.1 24.05-6.45Q19.9-1.15 14.15 0.75L14.15 0.75Q8.15 0.75 5.13-3.03 2.1-6.8 2.1-13.48 2.1-20.15 5.78-25.88 9.45-31.6 15.65-33.3L15.65-33.3Q20.7-33.3 25.95-32.35L25.95-32.35 25.9-31.25Q24.6-31.25 23.5-30.8L23.5-30.8Q22.25-27.85 21.85-23.9L21.85-23.9 20.6-23.9Q20.15-25.9 20.15-28.55L20.15-28.55Q17.8-29.8 14.53-29.8 11.25-29.8 9.1-28L9.1-28Q6.55-23.65 6.55-16.95L6.55-16.95Q6.55-6.95 10.85-4.3L10.85-4.3Q12.65-3.2 15.2-3.2ZM38.45-0.55L38.35 0.4Q35.8 0 32.8 0 29.8 0 26.95 0.3L26.95 0.3 26.8-0.65Q28.3-1.3 29.75-1.65L29.75-1.65Q30.2-5.05 30.2-9.5L30.2-9.5 30.2-13.7Q30.2-18.3 29.85-21.85L29.85-21.85Q28.65-22.25 27.15-22.25L27.15-22.25 27.15-23.3Q30.35-23.45 33.9-24.25L33.9-24.25 34.25-24.05Q33.7-20.6 33.7-16.25L33.7-16.25 33.9-16.2Q34.6-18.2 36.47-20.83 38.35-23.45 39.95-24.25L39.95-24.25Q42.2-24.25 44.35-23.45L44.35-23.45 44.35-22.75Q42.45-20.35 42.2-16.5L42.2-16.5 41.1-16.5Q41.1-18.45 41-19.55L41-19.55Q40.35-20.05 39.3-20.05L39.3-20.05Q37.8-20.05 36.12-17.68 34.45-15.3 33.7-13.15L33.7-13.15Q33.7-5.9 34.25-1.5L34.25-1.5Q36.75-1.15 38.45-0.55L38.45-0.55ZM55.85-2.85L55.85-2.85Q59-2.85 62-5.5L62-5.5 62.55-5Q59.7-1.1 55.25 0.75L55.25 0.75Q50.85 0.75 48.65-2 46.45-4.75 46.45-9.65 46.45-14.55 49.2-18.78 51.95-23 56.55-24.25L56.55-24.25Q59.9-24.25 61.25-22.93 62.6-21.6 62.6-18.25L62.6-18.25Q62.6-16.35 62.1-15L62.1-15Q63.15-14.6 64.55-14.6L64.55-14.6 64.5-13.55Q64.2-13.55 63.85-13.55L63.85-13.55Q58.25-13.55 50.45-11.9L50.45-11.9Q50.45-5.25 53.05-3.6L53.05-3.6Q54.15-2.85 55.85-2.85ZM58.6-15.25Q58.6-18.55 57.97-19.85 57.35-21.15 55.35-21.15 53.35-21.15 51.9-19.95L51.9-19.95Q50.55-17.15 50.45-13.2L50.45-13.2Q54.55-14.55 58.6-15.25L58.6-15.25ZM67.74-8.8L67.74-8.8Q67.74-14 70.54-18.32 73.34-22.65 78.04-24.25L78.04-24.25Q81.39-24.25 85.04-23.2L85.04-23.2Q85.74-24.25 86.19-25.85L86.19-25.85 87.24-25.55Q86.14-21.05 86.14-9.65L86.14-9.65Q86.14-4.55 86.49-1.65L86.49-1.65Q87.69-1.25 89.19-1.25L89.19-1.25 89.19-0.2Q85.99-0.05 82.44 0.75L82.44 0.75 82.09 0.55Q82.64-2.9 82.64-7.25L82.64-7.25 82.44-7.3Q80.69-4.8 78.29-2.45 75.89-0.1 73.74 0.75L73.74 0.75Q70.99 0.75 69.37-2.3 67.74-5.35 67.74-8.8ZM71.74-11.05L71.74-11.05Q71.74-8.6 72.62-5.98 73.49-3.35 75.14-3.35L75.14-3.35Q76.89-3.35 79.39-5.85 81.89-8.35 82.64-10.35L82.64-10.35Q82.64-17.8 82.29-19.95L82.29-19.95Q79.64-21.15 77.17-21.15 74.69-21.15 73.39-19.95L73.39-19.95Q71.74-16.15 71.74-11.05ZM99.44-9.75L99.44-9.75Q99.44-2.85 100.94-2.85L100.94-2.85Q103.69-2.85 106.64-5.5L106.64-5.5 107.14-5Q104.24-0.95 100.09 0.75L100.09 0.75Q97.24 0.75 96.44-1.85L96.44-1.85Q95.74-4.05 95.74-9.45L95.74-9.45Q95.74-10.4 95.74-11.5L95.74-11.5 95.94-21.45 93.24-21.45 93.14-21.55Q93.14-22.35 93.29-22.65L93.29-22.65Q97.49-25.4 98.79-28.35L98.79-28.35Q99.39-28.5 100.19-28.5L100.19-28.5 100.39-28.4Q99.89-25.4 99.79-23.55L99.79-23.55 106.79-23.8 106.99-23.6Q106.64-22.7 106.34-21.25L106.34-21.25Q103.79-21.4 99.64-21.4L99.64-21.4 99.44-11.5Q99.44-10.6 99.44-9.75ZM120.04-2.85L120.04-2.85Q123.19-2.85 126.19-5.5L126.19-5.5 126.74-5Q123.89-1.1 119.44 0.75L119.44 0.75Q115.04 0.75 112.84-2 110.64-4.75 110.64-9.65 110.64-14.55 113.39-18.78 116.14-23 120.74-24.25L120.74-24.25Q124.09-24.25 125.44-22.93 126.79-21.6 126.79-18.25L126.79-18.25Q126.79-16.35 126.29-15L126.29-15Q127.34-14.6 128.74-14.6L128.74-14.6 128.69-13.55Q128.39-13.55 128.04-13.55L128.04-13.55Q122.44-13.55 114.64-11.9L114.64-11.9Q114.64-5.25 117.24-3.6L117.24-3.6Q118.34-2.85 120.04-2.85ZM122.79-15.25Q122.79-18.55 122.16-19.85 121.54-21.15 119.54-21.15 117.54-21.15 116.09-19.95L116.09-19.95Q114.74-17.15 114.64-13.2L114.64-13.2Q118.74-14.55 122.79-15.25L122.79-15.25ZM146.98-24.25L147.33-24.05Q146.38-18.25 146.38-9.25L146.38-9.25Q146.38-3.35 148.48-3.35L148.48-3.35Q150.28-3.35 152.91-5.88 155.53-8.4 156.28-10.35L156.28-10.35Q156.28-17.6 155.73-22L155.73-22Q154.38-22.3 152.58-22.95L152.58-22.95 152.68-23.9Q155.48-23.5 157.98-23.5 160.48-23.5 163.03-23.8L163.03-23.8 163.18-22.85Q161.68-22.2 160.23-21.85L160.23-21.85Q159.78-18.45 159.78-14L159.78-14 159.78-9.8Q159.78-1.85 160.13 1.7L160.13 1.7Q159.18 4.45 156.13 7.08 153.08 9.7 150.08 10.75L150.08 10.75Q145.48 10.75 141.68 9.3L141.68 9.3 141.68 8.65Q143.53 6.45 143.78 3.05L143.78 3.05 144.83 3.05Q144.83 5 144.93 6.1L144.93 6.1Q147.73 7.65 151.33 7.65L151.33 7.65Q153.33 7.65 154.58 6.45L154.58 6.45Q155.73 3.4 156.01 0.93 156.28-1.55 156.28-7.25L156.28-7.25 156.08-7.3Q154.58-5.05 151.93-2.53 149.28 0 147.18 0.75L147.18 0.75Q144.28 0.75 143.43-2L143.43-2Q142.78-3.95 142.78-6.8L142.78-6.8Q142.78-7.25 142.78-7.8L142.78-7.8 143.03-21.85Q141.83-22.25 140.33-22.25L140.33-22.25 140.33-23.3Q143.48-23.45 146.98-24.25L146.98-24.25ZM177.13 0.75Q172.78 0.75 169.98-2.18 167.18-5.1 167.18-9.85 167.18-14.6 170.06-18.82 172.93-23.05 177.63-24.25L177.63-24.25Q182.28-24.25 184.68-21.55 187.08-18.85 187.08-14.1 187.08-9.35 184.28-5.15 181.48-0.95 177.13 0.75L177.13 0.75ZM176.28-21.15L176.28-21.15Q174.18-21.15 172.83-19.95L172.83-19.95Q171.18-16.8 171.18-12.7 171.18-8.6 173.03-5.48 174.88-2.35 177.98-2.35L177.98-2.35Q180.08-2.35 181.48-3.6L181.48-3.6Q183.08-6.65 183.08-11.03 183.08-15.4 181.41-18.28 179.73-21.15 176.28-21.15ZM197.18-8.95L197.18-8.95Q197.18-3.35 199.48-3.35L199.48-3.35Q201.43-3.35 204.08-5.8 206.73-8.25 207.63-10.35L207.63-10.35Q207.63-17.6 207.08-22L207.08-22Q205.73-22.3 203.93-22.95L203.93-22.95 204.03-23.9Q206.83-23.5 209.33-23.5 211.83-23.5 214.38-23.8L214.38-23.8 214.53-22.85Q213.03-22.2 211.58-21.85L211.58-21.85Q211.13-18.45 211.13-14L211.13-14 211.13-9.8Q211.13-5.2 211.48-1.65L211.48-1.65Q212.68-1.25 214.18-1.25L214.18-1.25 214.18-0.2Q210.98-0.05 207.43 0.75L207.43 0.75 207.08 0.65Q207.63-2.8 207.63-7.25L207.63-7.25 207.43-7.3Q205.73-4.95 203-2.48 200.28 0 198.08 0.75L198.08 0.75Q195.03 0.75 194.13-2L194.13-2Q193.53-3.95 193.53-6.8L193.53-6.8Q193.53-7.25 193.53-7.8L193.53-7.8 193.78-21.85Q192.58-22.25 191.08-22.25L191.08-22.25 191.08-23.3Q194.28-23.45 197.83-24.25L197.83-24.25 198.18-24.05Q197.38-19.2 197.23-10.05L197.23-10.05Q197.18-9.55 197.18-8.95ZM229.98-0.55L229.88 0.4Q227.33 0 224.33 0 221.33 0 218.48 0.3L218.48 0.3 218.33-0.65Q219.83-1.3 221.28-1.65L221.28-1.65Q221.73-5.05 221.73-9.5L221.73-9.5 221.73-13.7Q221.73-18.3 221.38-21.85L221.38-21.85Q220.18-22.25 218.68-22.25L218.68-22.25 218.68-23.3Q221.88-23.45 225.43-24.25L225.43-24.25 225.78-24.05Q225.23-20.6 225.23-16.25L225.23-16.25 225.43-16.2Q226.13-18.2 228-20.83 229.88-23.45 231.48-24.25L231.48-24.25Q233.73-24.25 235.88-23.45L235.88-23.45 235.88-22.75Q233.98-20.35 233.73-16.5L233.73-16.5 232.63-16.5Q232.63-18.45 232.53-19.55L232.53-19.55Q231.88-20.05 230.83-20.05L230.83-20.05Q229.33-20.05 227.65-17.68 225.98-15.3 225.23-13.15L225.23-13.15Q225.23-5.9 225.78-1.5L225.78-1.5Q228.28-1.15 229.98-0.55L229.98-0.55ZM256.67 0.75Q252.32 0.75 249.52-2.18 246.72-5.1 246.72-9.85 246.72-14.6 249.6-18.82 252.47-23.05 257.17-24.25L257.17-24.25Q261.82-24.25 264.22-21.55 266.62-18.85 266.62-14.1 266.62-9.35 263.82-5.15 261.02-0.95 256.67 0.75L256.67 0.75ZM255.82-21.15L255.82-21.15Q253.72-21.15 252.37-19.95L252.37-19.95Q250.72-16.8 250.72-12.7 250.72-8.6 252.57-5.48 254.42-2.35 257.52-2.35L257.52-2.35Q259.62-2.35 261.02-3.6L261.02-3.6Q262.62-6.65 262.62-11.03 262.62-15.4 260.95-18.28 259.27-21.15 255.82-21.15ZM303.27-19.75L303.27-19.75Q303.27-15.05 300.72-9.63 298.17-4.2 294.62-0.4L294.62-0.4Q293.37 0.25 291.82 0.75L291.82 0.75Q289.52 0.2 287.67-9.4L287.67-9.4Q285.32-4.35 281.67-0.4L281.67-0.4Q280.42 0.25 278.87 0.75L278.87 0.75Q278.02 0.55 277.29-0.65 276.57-1.85 275.54-5.83 274.52-9.8 273.72-14.95 272.92-20.1 272.47-21.8L272.47-21.8Q271.27-22.2 269.77-22.2L269.77-22.2 269.77-23.25Q273.12-23.4 276.87-24.25L276.87-24.25 277.22-24.05Q276.82-22.65 276.82-20.93 276.82-19.2 277.52-14.83 278.22-10.45 279.02-7.13 279.82-3.8 280.27-3.05 280.72-2.3 281.22-2.3L281.22-2.3Q283.87-5.8 285.09-9.28 286.32-12.75 286.32-16.35 286.32-19.95 285.42-21.8L285.42-21.8Q284.22-22.2 282.72-22.2L282.72-22.2 282.72-23.25Q285.67-23.05 290.02-23.05L290.02-23.05Q299.07-23.05 305.07-24.55L305.07-24.55 305.27-23.65Q304.62-23.15 302.87-22.25L302.87-22.25Q303.27-20.95 303.27-19.75ZM295.42-22.15L295.42-22.15Q291.37-22.15 289.77-21.15L289.77-21.15Q289.77-19.2 290.47-14.83 291.17-10.45 291.97-7.13 292.77-3.8 293.22-3.05 293.67-2.3 294.17-2.3L294.17-2.3Q296.82-5.8 298.04-9.28 299.27-12.75 299.27-17.1L299.27-17.1Q299.27-19.6 298.22-21.7L298.22-21.7Q296.77-22.15 295.42-22.15ZM324.52-14.55L324.52-14.55Q324.52-20.15 322.22-20.15L322.22-20.15Q320.27-20.15 317.62-17.7 314.97-15.25 314.07-13.15L314.07-13.15Q314.07-5.9 314.62-1.5L314.62-1.5Q315.97-1.2 317.77-0.55L317.77-0.55 317.67 0.4Q314.87 0 312.37 0 309.87 0 307.32 0.3L307.32 0.3 307.17-0.65Q308.67-1.3 310.12-1.65L310.12-1.65Q310.57-5.05 310.57-9.5L310.57-9.5 310.57-13.7Q310.57-18.3 310.22-21.85L310.22-21.85Q309.02-22.25 307.52-22.25L307.52-22.25 307.52-23.3Q310.72-23.45 314.27-24.25L314.27-24.25 314.62-24.05Q314.07-20.6 314.07-16.25L314.07-16.25 314.27-16.2Q315.97-18.55 318.69-21.03 321.42-23.5 323.62-24.25L323.62-24.25Q326.67-24.25 327.57-21.5L327.57-21.5Q328.17-19.55 328.17-16.7L328.17-16.7Q328.17-16.25 328.17-15.7L328.17-15.7 327.92-1.65Q329.37-1.3 330.87-0.65L330.87-0.65 330.72 0.3Q328.32 0 326.64 0 324.97 0 323.47 0.1L323.47 0.1 323.47-0.6Q324.27-4.5 324.47-13.45L324.47-13.45Q324.52-13.95 324.52-14.55ZM376.01-19.75L376.01-19.75Q376.01-15.05 373.46-9.63 370.91-4.2 367.36-0.4L367.36-0.4Q366.11 0.25 364.56 0.75L364.56 0.75Q362.26 0.2 360.41-9.4L360.41-9.4Q358.06-4.35 354.41-0.4L354.41-0.4Q353.16 0.25 351.61 0.75L351.61 0.75Q350.76 0.55 350.04-0.65 349.31-1.85 348.29-5.83 347.26-9.8 346.46-14.95 345.66-20.1 345.21-21.8L345.21-21.8Q344.01-22.2 342.51-22.2L342.51-22.2 342.51-23.25Q345.86-23.4 349.61-24.25L349.61-24.25 349.96-24.05Q349.56-22.65 349.56-20.93 349.56-19.2 350.26-14.83 350.96-10.45 351.76-7.13 352.56-3.8 353.01-3.05 353.46-2.3 353.96-2.3L353.96-2.3Q356.61-5.8 357.84-9.28 359.06-12.75 359.06-16.35 359.06-19.95 358.16-21.8L358.16-21.8Q356.96-22.2 355.46-22.2L355.46-22.2 355.46-23.25Q358.41-23.05 362.76-23.05L362.76-23.05Q371.81-23.05 377.81-24.55L377.81-24.55 378.01-23.65Q377.36-23.15 375.61-22.25L375.61-22.25Q376.01-20.95 376.01-19.75ZM368.16-22.15L368.16-22.15Q364.11-22.15 362.51-21.15L362.51-21.15Q362.51-19.2 363.21-14.83 363.91-10.45 364.71-7.13 365.51-3.8 365.96-3.05 366.41-2.3 366.91-2.3L366.91-2.3Q369.56-5.8 370.79-9.28 372.01-12.75 372.01-17.1L372.01-17.1Q372.01-19.6 370.96-21.7L370.96-21.7Q369.51-22.15 368.16-22.15ZM390.21 0.75Q385.86 0.75 383.06-2.18 380.26-5.1 380.26-9.85 380.26-14.6 383.13-18.82 386.01-23.05 390.71-24.25L390.71-24.25Q395.36-24.25 397.76-21.55 400.16-18.85 400.16-14.1 400.16-9.35 397.36-5.15 394.56-0.95 390.21 0.75L390.21 0.75ZM389.36-21.15L389.36-21.15Q387.26-21.15 385.91-19.95L385.91-19.95Q384.26-16.8 384.26-12.7 384.26-8.6 386.11-5.48 387.96-2.35 391.06-2.35L391.06-2.35Q393.16-2.35 394.56-3.6L394.56-3.6Q396.16-6.65 396.16-11.03 396.16-15.4 394.48-18.28 392.81-21.15 389.36-21.15ZM415.96-0.55L415.86 0.4Q413.31 0 410.31 0 407.31 0 404.46 0.3L404.46 0.3 404.31-0.65Q405.81-1.3 407.26-1.65L407.26-1.65Q407.71-5.05 407.71-9.5L407.71-9.5 407.71-13.7Q407.71-18.3 407.36-21.85L407.36-21.85Q406.16-22.25 404.66-22.25L404.66-22.25 404.66-23.3Q407.86-23.45 411.41-24.25L411.41-24.25 411.76-24.05Q411.21-20.6 411.21-16.25L411.21-16.25 411.41-16.2Q412.11-18.2 413.98-20.83 415.86-23.45 417.46-24.25L417.46-24.25Q419.71-24.25 421.86-23.45L421.86-23.45 421.86-22.75Q419.96-20.35 419.71-16.5L419.71-16.5 418.61-16.5Q418.61-18.45 418.51-19.55L418.51-19.55Q417.86-20.05 416.81-20.05L416.81-20.05Q415.31-20.05 413.63-17.68 411.96-15.3 411.21-13.15L411.21-13.15Q411.21-5.9 411.76-1.5L411.76-1.5Q414.26-1.15 415.96-0.55L415.96-0.55ZM430.85-20.85L430.75-11.5Q430.75-10.05 430.75-6.93 430.75-3.8 431.05-1.5L431.05-1.5Q432.45-1.2 434.2-0.55L434.2-0.55 434.1 0.4Q431.3 0 428.8 0 426.3 0 423.75 0.3L423.75 0.3 423.6-0.65Q425.1-1.3 426.55-1.65L426.55-1.65Q427-4.85 427.05-11.5L427.05-11.5 427.15-20.85Q427.15-22.15 427.15-25.53 427.15-28.9 426.8-32.45L426.8-32.45Q425.5-32.85 424.1-32.85L424.1-32.85 424.1-33.9Q429.1-34.25 433.65-35.55L433.65-35.55 433.9-34.65Q432.95-33.9 431.55-33.2L431.55-33.2Q430.95-29.9 430.85-20.85L430.85-20.85ZM438.85-8.8L438.85-8.8Q438.85-14 441.65-18.32 444.45-22.65 449.15-24.25L449.15-24.25Q451.85-24.25 454.05-23.75L454.05-23.75Q454.05-30.25 453.7-33.15L453.7-33.15Q452.5-33.55 451-33.55L451-33.55 451-34.6Q454.2-34.75 457.75-35.55L457.75-35.55 458.1-35.3Q457.25-30.4 457.25-18.8L457.25-18.8 457.25-9.65Q457.25-4.55 457.6-1.65L457.6-1.65Q458.8-1.25 460.3-1.25L460.3-1.25 460.3-0.2Q457.1-0.05 453.55 0.75L453.55 0.75 453.2 0.55Q453.75-2.9 453.75-7.25L453.75-7.25 453.55-7.3Q451.8-4.8 449.4-2.45 447-0.1 444.85 0.75L444.85 0.75Q442.1 0.75 440.48-2.3 438.85-5.35 438.85-8.8ZM442.85-11.05L442.85-11.05Q442.85-8.55 443.73-5.95 444.6-3.35 446.25-3.35L446.25-3.35Q448-3.35 450.5-5.85 453-8.35 453.75-10.35L453.75-10.35Q453.75-17.8 453.4-19.95L453.4-19.95Q450.75-21.15 448.28-21.15 445.8-21.15 444.5-19.95L444.5-19.95Q442.85-16.15 442.85-11.05Z" opacity="1" transform="matrix(1,0,0,1,0,0)" fill="#89939e" class="slogan-text-1" data-fill-palette-color="secondary" id="text-1"></path></svg></g></svg></g></svg></g></svg></g><g></g></svg></g><defs></defs></svg><rect width="395.52" height="216.4564947645706" fill="none" stroke="none" visibility="hidden"></rect></g></svg></g></svg>