<svg width="1498" height="627" viewBox="0 0 1498 627" fill="none" xmlns="http://www.w3.org/2000/svg">
<g clip-path="url(#clip0_1_10)">
<g clip-path="url(#clip1_1_10)">
<g clip-path="url(#clip2_1_10)">
<path d="M1494.17 134.095C1487.13 69.2004 1467.06 51.159 1467.06 51.159C1405.45 -15.686 1328.55 -1.28015 1259.47 8.32757C1137.51 8.71384 1016.04 22.991 894.361 30.6521C638.959 31.8186 381.373 12.6107 127.24 59.9828C103.366 74.5212 -24.9346 62.8382 4.07785 142.404C11.6822 175.503 39.4298 212.233 38.5815 242.605C42.3837 247.926 47.6666 235.724 49.9199 243.385C57.8083 264.021 70.6918 254.288 81.2577 266.486C66.5374 299.066 77.0995 326.193 87.1692 354.618C69.427 362.014 46.682 358.511 36.4722 383.044C35.4156 400.824 29.7123 397.449 23.4448 396.669C18.8662 396.15 9.641 398.097 11.1899 403.679C16.4728 422.758 -6.20396 433.794 8.02015 452.483C-1.76555 472.732 14.7838 490.251 12.5305 512.189C12.2465 516.601 13.7954 520.365 16.2607 521.403C27.175 526.985 11.2619 537.888 12.9509 549.7C124.915 630.432 246.384 574.618 361.093 611.739C390.878 585.783 368.485 620.957 380.388 615.503C389.682 609.145 396.441 635.491 406.935 620.566C408.556 616.283 406.091 606.161 411.862 608.107C414.892 609.145 417.569 608.883 417.99 602.915C418.626 593.959 413.063 599.541 411.582 594.868C427.567 571.244 423.625 627.444 438.621 625.107C437.917 618.23 433.554 608.365 442.496 609.664C451.369 599.798 451.649 591.622 459.537 613.818C459.817 618.62 461.226 621.994 463.48 624.331C488.126 600.188 512.631 632.897 538.474 621.994C554.319 610.054 569.528 628.485 585.581 623.941C591.216 620.305 596.92 613.818 602.343 624.721C668.745 627.057 739.513 617.321 802.469 625.107C970.692 610.573 1150.47 631.079 1327.85 611.871C1369.68 604.472 1413.12 593.959 1453.9 585.521C1453.9 585.521 1486.92 562.417 1486.92 458.584C1486.92 354.751 1493.96 367.725 1495.02 285.046C1496.08 202.368 1501.01 198.994 1493.96 134.095H1494.17Z" fill="#636365"/>
<g clip-path="url(#clip3_1_10)">
<path d="M277.693 460.461H268.506L211.087 121.116H220.274L273.673 434.623L340.279 121.116H349.466L414.924 440.365L470.046 121.116H479.233L420.666 460.461H409.756L344.873 142.935L277.693 460.461ZM592.348 464.481C575.888 464.481 562.95 462.261 553.533 457.82C544.193 453.456 537.417 447.638 533.207 440.365C528.996 433.092 526.316 424.938 525.168 415.904C524.02 406.947 523.445 398.066 523.445 389.262V246.863C523.445 238.059 524.02 229.255 525.168 220.45C526.316 211.646 529.072 203.493 533.436 195.99C537.877 188.564 544.882 182.631 554.452 178.19C564.021 173.826 577.419 171.644 594.645 171.644C615.698 171.644 631.01 175.472 640.58 183.128C650.15 190.784 656.351 200.354 659.184 211.838C662.093 223.321 663.547 234.997 663.547 246.863V389.262C663.547 401.129 662.093 412.804 659.184 424.288C656.351 435.771 649.958 445.341 640.006 452.997C630.053 460.653 614.167 464.481 592.348 464.481ZM592.348 455.294C612.253 455.294 626.493 451.734 635.068 444.614C643.719 437.57 649.078 428.766 651.145 418.201C653.289 407.713 654.36 397.492 654.36 387.539V248.586C654.36 238.25 653.289 227.915 651.145 217.58C649.078 207.244 643.91 198.516 635.642 191.397C627.45 184.353 613.784 180.831 594.645 180.831C579.333 180.831 567.352 182.937 558.701 187.148C550.126 191.358 544.001 196.794 540.327 203.455C536.728 210.192 534.546 217.465 533.781 225.274C533.015 233.159 532.632 240.93 532.632 248.586V387.539C532.632 395.195 533.015 402.928 533.781 410.737C534.546 418.622 536.652 425.895 540.097 432.556C543.542 439.293 549.36 444.767 557.552 448.978C565.821 453.188 577.419 455.294 592.348 455.294ZM745.656 460.461H736.469V176.238H744.508L745.656 204.947C749.867 196.143 756.834 188.372 766.557 181.635C776.356 174.975 790.252 171.644 808.243 171.644C816.282 171.644 823.363 172.219 829.488 173.367V182.554C823.363 181.406 816.282 180.831 808.243 180.831C787.189 180.831 771.495 186.382 761.16 197.483C750.824 208.584 745.656 221.79 745.656 237.102V460.461ZM931.005 464.481C909.568 464.481 893.989 460.653 884.266 452.997C874.466 445.341 868.418 435.771 866.121 424.288C863.824 412.804 862.676 401.129 862.676 389.262V246.863C862.676 238.059 863.25 229.255 864.399 220.45C865.547 211.646 868.227 203.493 872.437 195.99C876.648 188.564 883.462 182.631 892.878 178.19C902.219 173.826 914.927 171.644 931.005 171.644C944.402 171.644 955.12 173.061 963.159 175.893C971.198 178.803 977.437 181.98 981.878 185.425C986.241 188.87 989.189 191.358 990.72 192.889V98.7225H999.907V460.461H992.443L991.294 431.752C988.615 439.791 981.916 447.255 971.198 454.145C960.48 461.036 947.082 464.481 931.005 464.481ZM931.005 455.294C947.082 455.294 959.446 452.117 968.097 445.762C976.672 439.484 982.605 431.178 985.897 420.842C989.113 410.507 990.72 399.406 990.72 387.539V209.541C989.572 206.861 987.39 203.301 984.174 198.861C980.882 194.497 975.141 190.401 966.949 186.573C958.68 182.745 946.699 180.831 931.005 180.831C916.076 180.831 904.592 182.937 896.553 187.148C888.515 191.358 882.773 196.794 879.328 203.455C875.882 210.192 873.777 217.465 873.012 225.274C872.246 233.159 871.863 240.93 871.863 248.586V387.539C871.863 395.195 872.246 402.928 873.012 410.737C873.777 418.622 875.882 425.895 879.328 432.556C882.773 439.293 888.515 444.767 896.553 448.978C904.592 453.188 916.076 455.294 931.005 455.294ZM1087.18 460.461H1078V98.7225H1087.18V460.461ZM1156.66 526.493C1150.92 526.493 1144.99 526.034 1138.86 525.115C1132.74 524.12 1129.29 523.431 1128.53 523.048V515.009C1129.29 515.392 1132.54 516.081 1138.29 517.076C1144.03 517.995 1150.15 518.454 1156.66 518.454C1162.79 518.454 1169.18 516.923 1175.84 513.861C1182.58 510.799 1188.89 505.248 1194.79 497.209C1200.76 489.171 1204.89 477.687 1207.19 462.758L1137.71 176.238H1146.9L1211.78 444.958L1277.24 176.238H1286.43L1216.95 461.036C1211.97 480.941 1204.97 496.827 1195.94 508.693C1186.98 520.56 1173.89 526.493 1156.66 526.493Z" fill="#D2D6DC"/>
</g>
</g>
</g>
</g>
<defs>
<clipPath id="clip0_1_10">
<rect width="1498" height="627" fill="white"/>
</clipPath>
<clipPath id="clip1_1_10">
<rect width="1498" height="636" fill="white" transform="translate(-0.167419 -0.00012207)"/>
</clipPath>
<clipPath id="clip2_1_10">
<rect width="1497.85" height="625.216" fill="white" transform="translate(-0.167419 -0.00012207)"/>
</clipPath>
<clipPath id="clip3_1_10">
<rect width="1075.46" height="427.771" fill="white" transform="translate(211.029 98.7225)"/>
</clipPath>
</defs>
</svg>
